<?xml version="1.0" encoding="UTF-8" standalone="no"?>
<!-- Created with Inkscape (http://www.inkscape.org/) -->
<svg
   xmlns:dc="http://purl.org/dc/elements/1.1/"
   xmlns:cc="http://web.resource.org/cc/"
   xmlns:rdf="http://www.w3.org/1999/02/22-rdf-syntax-ns#"
   xmlns:svg="http://www.w3.org/2000/svg"
   xmlns="http://www.w3.org/2000/svg"
   xmlns:xlink="http://www.w3.org/1999/xlink"
   xmlns:sodipodi="http://sodipodi.sourceforge.net/DTD/sodipodi-0.dtd"
   xmlns:inkscape="http://www.inkscape.org/namespaces/inkscape"
   width="70.551804"
   height="70.551804"
   id="svg2"
   sodipodi:version="0.32"
   inkscape:version="0.45.1"
   sodipodi:docbase="/home/ralph/Desktop/Verknüpfung mit xiangqi/data"
   sodipodi:docname="R.svg"
   inkscape:output_extension="org.inkscape.output.svg.inkscape"
   version="1.0">
  <defs
     id="defs4">
    <linearGradient
       id="linearGradient6098">
      <stop
         id="stop6100"
         offset="0"
         style="stop-color:#000000;stop-opacity:0.72361809;" />
      <stop
         style="stop-color:#ffffff;stop-opacity:1;"
         offset="1"
         id="stop6104" />
    </linearGradient>
    <linearGradient
       id="linearGradient5109">
      <stop
         style="stop-color:#ffffff;stop-opacity:1;"
         offset="0"
         id="stop5111" />
      <stop
         id="stop6096"
         offset="1"
         style="stop-color:#ffffff;stop-opacity:0.49803922;" />
    </linearGradient>
    <radialGradient
       inkscape:collect="always"
       xlink:href="#linearGradient6098"
       id="radialGradient5125"
       cx="56.068977"
       cy="92.854034"
       fx="56.068977"
       fy="92.854034"
       r="36.754837"
       gradientUnits="userSpaceOnUse" />
  </defs>
  <sodipodi:namedview
     id="base"
     pagecolor="#ffffff"
     bordercolor="#666666"
     borderopacity="1.0"
     inkscape:pageopacity="0.0"
     inkscape:pageshadow="2"
     inkscape:zoom="5.640625"
     inkscape:cx="64"
     inkscape:cy="64"
     inkscape:document-units="px"
     inkscape:current-layer="g1336"
     inkscape:window-width="1280"
     inkscape:window-height="942"
     inkscape:window-x="32"
     inkscape:window-y="55" />
  <metadata
     id="metadata7">
    <rdf:RDF>
      <cc:Work
         rdf:about="">
        <dc:format>image/svg+xml</dc:format>
        <dc:type
           rdf:resource="http://purl.org/dc/dcmitype/StillImage" />
      </cc:Work>
    </rdf:RDF>
  </metadata>
  <g
     inkscape:label="Layer 1"
     inkscape:groupmode="layer"
     id="layer1"
     transform="translate(-25.267035,-23.139612)">
    <g
       id="g1336">
      <path
         sodipodi:type="arc"
         style="opacity:1;fill:#cca86c;fill-opacity:1;stroke:none;stroke-width:2.01929021;stroke-miterlimit:4;stroke-dasharray:none;stroke-opacity:1"
         id="path4136"
         sodipodi:cx="56.068977"
         sodipodi:cy="92.854034"
         sodipodi:rx="35.616142"
         sodipodi:ry="35.616142"
         d="M 91.68512 92.854034 A 35.616142 35.616142 0 1 1  20.452835,92.854034 A 35.616142 35.616142 0 1 1  91.68512 92.854034 z"
         transform="matrix(0.990447,0,0,0.990447,5.0095856,-33.551487)" />
      <path
         sodipodi:type="arc"
         style="opacity:1;fill:#cca86c;fill-opacity:1;stroke:#800000;stroke-width:2.27738762;stroke-miterlimit:4;stroke-dasharray:none;stroke-opacity:1"
         id="path2175"
         sodipodi:cx="56.068977"
         sodipodi:cy="92.854034"
         sodipodi:rx="35.616142"
         sodipodi:ry="35.616142"
         d="M 91.68512 92.854034 A 35.616142 35.616142 0 1 1  20.452835,92.854034 A 35.616142 35.616142 0 1 1  91.68512 92.854034 z"
         transform="matrix(0.8999048,0,0,0.8999048,10.086194,-25.144278)" />
      <g
         id="g2357"
         inkscape:label="Layer 1"
         transform="matrix(0.6723766,0,0,1,18.774701,-27.228791)"
         style="stroke:#800000;fill:#800000">
        <g
           transform="translate(0.664935,-5.153247)"
           id="g11588"
           style="stroke:#800000;fill:#800000">
          <path
             style="fill:#800000;fill-opacity:1;fill-rule:evenodd;stroke:#800000;stroke-width:1px;stroke-linecap:butt;stroke-linejoin:miter;stroke-opacity:1"
             d="M 34.244156,105.05974 C 53.693507,100.4052 50.036365,98.742857 66.493508,98.41039 C 82.950651,98.077922 84.446754,99.075323 87.77143,99.574022 C 90.585412,99.996117 91.76104,101.9013 92.259741,98.41039 C 92.73518,95.082309 90.098702,95.251948 81.288313,94.753247 C 72.477923,94.254546 57.018183,96.581818 55.688312,96.748052 C 54.358442,96.914286 48.872727,97.579221 43.719481,98.909091 C 35.433538,101.0474 33.403782,100.75164 32.415585,102.06753 C 31.41299,103.4026 33.911689,105.05974 34.244156,105.05974 z "
             id="path2360"
             sodipodi:nodetypes="csssssssc" />
          <path
             style="fill:#800000;fill-opacity:1;fill-rule:evenodd;stroke:#800000;stroke-width:1px;stroke-linecap:butt;stroke-linejoin:miter;stroke-opacity:1"
             d="M 57.018182,67.490909 C 57.018182,67.490909 61.007793,64.997402 63.833767,68.488311 C 66.659741,71.97922 64.498702,73.475324 64.166234,85.942857 C 63.833767,98.410389 63.501299,113.37143 61.34026,113.37143 C 59.179221,113.37143 59.345455,105.39221 59.179221,98.077922 C 59.012987,90.763636 61.506494,72.311688 59.844156,70.981818 C 58.181819,69.651948 57.018182,67.823376 57.018182,67.490909 z "
             id="path2362" />
          <path
             style="fill:#800000;fill-opacity:1;fill-rule:evenodd;stroke:#800000;stroke-width:1px;stroke-linecap:butt;stroke-linejoin:miter;stroke-opacity:1"
             d="M 42.223377,79.958441 C 40.727273,80.955844 42.223377,84.114285 44.051948,87.937662 C 45.88052,91.761039 47.21039,94.420779 48.54026,93.922078 C 49.87013,93.423376 49.205195,89.433766 47.542857,86.607792 C 45.88052,83.781818 42.389611,79.958441 42.223377,79.958441 z "
             id="path2364" />
          <path
             style="fill:#800000;fill-opacity:1;fill-rule:evenodd;stroke:#800000;stroke-width:1px;stroke-linecap:butt;stroke-linejoin:miter;stroke-opacity:1"
             d="M 79.293507,78.794805 C 75.802598,78.462337 75.636364,80.78961 74.472728,83.116883 C 73.309091,85.444156 73.142858,89.932467 73.142858,89.932467 C 73.142858,89.932467 75.303897,89.101298 77.631169,86.774026 C 79.958442,84.446753 82.285715,82.784415 81.62078,81.288311 C 80.955845,79.792207 79.127273,78.961039 79.293507,78.794805 z "
             id="path2366" />
          <path
             style="fill:#800000;fill-opacity:1;fill-rule:evenodd;stroke:#800000;stroke-width:1px;stroke-linecap:butt;stroke-linejoin:miter;stroke-opacity:1"
             d="M 44.051948,83.116883 C 42.888312,81.953246 49.038961,80.124675 57.849351,78.794805 C 66.659741,77.464935 79.625975,77.132467 79.127273,78.462337 C 78.628572,79.792207 69.319481,79.45974 63.833767,79.958441 C 58.348052,80.457143 44.051948,83.116883 44.051948,83.116883 z "
             id="path2368" />
          <path
             style="fill:#800000;fill-opacity:1;fill-rule:evenodd;stroke:#800000;stroke-width:0.83009124px;stroke-linecap:butt;stroke-linejoin:miter;stroke-opacity:1"
             d="M 45.335877,87.337958 C 44.220292,86.501616 50.116956,85.187366 58.56353,84.231548 C 67.010105,83.275729 79.440911,83.036774 78.962803,83.992593 C 78.484695,84.948411 69.560013,84.709457 64.300826,85.067889 C 59.041638,85.426321 45.335877,87.337958 45.335877,87.337958 z "
             id="path2370" />
          <path
             style="fill:#800000;fill-opacity:1;fill-rule:evenodd;stroke:#800000;stroke-width:0.72127944px;stroke-linecap:butt;stroke-linejoin:miter;stroke-opacity:1"
             d="M 48.110106,93.239257 C 47.267823,92.402915 51.719891,91.088665 58.097179,90.132847 C 64.474469,89.177028 73.859911,88.938073 73.498932,89.893892 C 73.137954,90.84971 66.399687,90.610756 62.428923,90.969188 C 58.458158,91.32762 48.110106,93.239257 48.110106,93.239257 z "
             id="path2372" />
          <path
             style="fill:#800000;fill-opacity:1;fill-rule:evenodd;stroke:#800000;stroke-width:0.87964135px;stroke-linecap:butt;stroke-linejoin:miter;stroke-opacity:1"
             d="M 51.200001,74.034554 C 54.857144,75.320819 54.358442,75.063566 61.174027,74.677686 C 67.989611,74.291807 72.976624,75.063566 73.641559,73.905928 C 74.306494,72.748289 74.306494,71.847903 72.311689,71.462024 C 70.316884,71.076144 65.496105,71.076144 61.34026,71.97653 C 57.184416,72.876915 51.366234,73.905928 51.200001,74.034554 z "
             id="path2374" />
        </g>
      </g>
    </g>
  </g>
</svg>
